<svg width="38" height="38" viewBox="0 0 38 38" xmlns="http://www.w3.org/2000/svg">
          <circle cx="19" cy="19" r="19" fill="#8B2BE2"/>
          <path d="M19 7c0 0 7 4.5 7 12 0 4-2.5 7.5-7 9-4.5-1.5-7-5-7-9 0-7.5 7-12 7-12z" fill="white" opacity=".95"/>
          <path d="M19 12c0 0 3.5 2.5 3.5 7 0 2.5-1.3 4.5-3.5 5.5-2.2-1-3.5-3-3.5-5.5 0-4.5 3.5-7 3.5-7z" fill="#8B2BE2"/>
          <path d="M15 28l-3 3.5 4-1 3 1-1-3.5" fill="white" opacity=".8"/>
          <path d="M23 28l3 3.5-4-1-3 1 1-3.5" fill="white" opacity=".8"/>
        </svg>